REM DIRINDEX 1\2\6,1\2\7,1\2\8,1\2\9,1\3\10,1\3\11,1\4\12,1\4\13,1\4\14,1\5\15,1\5\16,1\5\17
REM DIRNAME cjc020,folder01,folder02,folder03,folder04,folder05,folder06,folder07,folder08,folder09,folder10,folder11,folder12,folder13,folder14,folder15,folder16
TITLE ""
FILE "1900_3_017 sec03_0263_0278.mp3" MP3
  TRACK 01 AUDIO
    TITLE "0:"
    INDEX 01 00:00:00
  TRACK 02 AUDIO
    TITLE "17:cjc020_6494"
    INDEX 01 00:00:19
  TRACK 03 AUDIO
    TITLE "0:"
    INDEX 01 00:01:32
  TRACK 04 AUDIO
    TITLE "16:cjc020_6495"
    INDEX 01 00:01:36
  TRACK 05 AUDIO
    TITLE "0:"
    INDEX 01 00:02:53
  TRACK 06 AUDIO
    TITLE "17:cjc020_6496"
    INDEX 01 00:03:35
  TRACK 07 AUDIO
    TITLE "0:"
    INDEX 01 00:04:33
  TRACK 08 AUDIO
    TITLE "16:cjc020_6497"
    INDEX 01 00:04:38
  TRACK 09 AUDIO
    TITLE "0:"
    INDEX 01 00:05:65
  TRACK 10 AUDIO
    TITLE "17:cjc020_6498"
    INDEX 01 00:06:51
  TRACK 11 AUDIO
    TITLE "0:"
    INDEX 01 00:07:64
  TRACK 12 AUDIO
    TITLE "16:cjc020_6499"
    INDEX 01 00:07:70
  TRACK 13 AUDIO
    TITLE "0:"
    INDEX 01 00:09:20
  TRACK 14 AUDIO
    TITLE "17:cjc020_6500"
    INDEX 01 00:10:02
  TRACK 15 AUDIO
    TITLE "0:"
    INDEX 01 00:11:13
  TRACK 16 AUDIO
    TITLE "16:cjc020_6501"
    INDEX 01 00:11:19
  TRACK 17 AUDIO
    TITLE "0:"
    INDEX 01 00:12:36
  TRACK 18 AUDIO
    TITLE "17:cjc020_6502"
    INDEX 01 00:13:20
  TRACK 19 AUDIO
    TITLE "0:"
    INDEX 01 00:14:25
  TRACK 20 AUDIO
    TITLE "16:cjc020_6503"
    INDEX 01 00:14:29
  TRACK 21 AUDIO
    TITLE "0:"
    INDEX 01 00:15:38
  TRACK 22 AUDIO
    TITLE "17:cjc020_6504"
    INDEX 01 00:16:20
  TRACK 23 AUDIO
    TITLE "0:"
    INDEX 01 00:17:45
  TRACK 24 AUDIO
    TITLE "16:cjc020_6505"
    INDEX 01 00:17:47
  TRACK 25 AUDIO
    TITLE "0:"
    INDEX 01 00:18:52
  TRACK 26 AUDIO
    TITLE "17:cjc020_6506"
    INDEX 01 00:19:36
  TRACK 27 AUDIO
    TITLE "0:"
    INDEX 01 00:20:22
  TRACK 28 AUDIO
    TITLE "16:cjc020_6507"
    INDEX 01 00:20:26
  TRACK 29 AUDIO
    TITLE "0:"
    INDEX 01 00:21:27
  TRACK 30 AUDIO
    TITLE "17:cjc020_6508"
    INDEX 01 00:22:09
  TRACK 31 AUDIO
    TITLE "0:"
    INDEX 01 00:23:20
  TRACK 32 AUDIO
    TITLE "16:cjc020_6509"
    INDEX 01 00:23:26
  TRACK 33 AUDIO
    TITLE "0:"
    INDEX 01 00:24:47
  TRACK 34 AUDIO
    TITLE "17:cjc020_6510"
    INDEX 01 00:25:31
  TRACK 35 AUDIO
    TITLE "0:"
    INDEX 01 00:26:40
  TRACK 36 AUDIO
    TITLE "16:cjc020_6511"
    INDEX 01 00:26:44
  TRACK 37 AUDIO
    TITLE "0:"
    INDEX 01 00:27:65
  TRACK 38 AUDIO
    TITLE "17:cjc020_6512"
    INDEX 01 00:28:51
  TRACK 39 AUDIO
    TITLE "0:"
    INDEX 01 00:29:46
  TRACK 40 AUDIO
    TITLE "16:cjc020_6513"
    INDEX 01 00:29:50
  TRACK 41 AUDIO
    TITLE "0:"
    INDEX 01 00:31:08
  TRACK 42 AUDIO
    TITLE "17:cjc020_6514"
    INDEX 01 00:31:67
  TRACK 43 AUDIO
    TITLE "0:"
    INDEX 01 00:33:05
  TRACK 44 AUDIO
    TITLE "16:cjc020_6515"
    INDEX 01 00:33:11
  TRACK 45 AUDIO
    TITLE "0:"
    INDEX 01 00:34:16
  TRACK 46 AUDIO
    TITLE "17:cjc020_6516"
    INDEX 01 00:35:00
  TRACK 47 AUDIO
    TITLE "0:"
    INDEX 01 00:36:13
  TRACK 48 AUDIO
    TITLE "16:cjc020_6517"
    INDEX 01 00:36:23
  TRACK 49 AUDIO
    TITLE "0:"
    INDEX 01 00:37:22
  TRACK 50 AUDIO
    TITLE "17:cjc020_6518"
    INDEX 01 00:38:06
  TRACK 51 AUDIO
    TITLE "0:"
    INDEX 01 00:40:01
  TRACK 52 AUDIO
    TITLE "16:cjc020_6519"
    INDEX 01 00:40:09
  TRACK 53 AUDIO
    TITLE "0:"
    INDEX 01 00:41:22
  TRACK 54 AUDIO
    TITLE "17:cjc020_6520"
    INDEX 01 00:42:04
  TRACK 55 AUDIO
    TITLE "0:"
    INDEX 01 00:43:17
  TRACK 56 AUDIO
    TITLE "16:cjc020_6521"
    INDEX 01 00:43:25
  TRACK 57 AUDIO
    TITLE "0:"
    INDEX 01 00:44:28
  TRACK 58 AUDIO
    TITLE "17:cjc020_6522"
    INDEX 01 00:45:10
  TRACK 59 AUDIO
    TITLE "0:"
    INDEX 01 00:46:25
  TRACK 60 AUDIO
    TITLE "16:cjc020_6523"
    INDEX 01 00:46:27
  TRACK 61 AUDIO
    TITLE "0:"
    INDEX 01 00:47:36
  TRACK 62 AUDIO
    TITLE "17:cjc020_6524"
    INDEX 01 00:48:20
  TRACK 63 AUDIO
    TITLE "0:"
    INDEX 01 00:50:21
  TRACK 64 AUDIO
    TITLE "16:cjc020_6525"
    INDEX 01 00:50:29
  TRACK 65 AUDIO
    TITLE "0:"
    INDEX 01 00:51:38
